<?xml version="1.0" encoding="utf-8"?>
<!-- Generator: Adobe Illustrator 22.0.0, SVG Export Plug-In . SVG Version: 6.00 Build 0)  -->
<svg version="1.1" id="Layer_1" xmlns="http://www.w3.org/2000/svg" xmlns:xlink="http://www.w3.org/1999/xlink" x="0px" y="0px"
	 viewBox="0 0 20 20" style="enable-background:new 0 0 20 20;" xml:space="preserve" width="20px" height="20px">
<style type="text/css">
	.st0{fill:#F7A872;}
	.st1{fill:#E26D13;}
</style>
<path class="st0" d="M9,16.8V3.7c-1.3-1-4.2-1.8-7-1.6v13C2.1,15.2,6.1,15.1,9,16.8z"/>
<path class="st1" d="M2,2.1c2.8-0.2,5.7,0.6,7,1.6v13.1c-2.9-1.8-6.9-1.7-7-1.7V2.1 M2,0.8c-0.6,0-1,0-1,0v15.7
	c0.4-0.1,0.9-0.1,1.5-0.1c2.3,0,5.4,0.7,7.5,2.7V2.9C8,1.1,3.9,0.8,2,0.8L2,0.8z"/>
<path class="st0" d="M18,15.1v-13c-2.8-0.2-5.7,0.6-7,1.6v13.1C13.9,15.1,17.9,15.2,18,15.1z"/>
<path class="st1" d="M18,2.1v13c-0.1,0-4.1-0.1-7,1.7V3.7C12.3,2.7,15.2,1.9,18,2.1 M18,0.8c-1.9,0-6,0.3-8,2.1v16.2
	c2.1-2,5.2-2.7,7.5-2.7c0.6,0,1.1,0,1.5,0.1V0.8C19,0.8,18.6,0.8,18,0.8L18,0.8z"/>
</svg>
