<svg xmlns="http://www.w3.org/2000/svg" viewBox="0 0 15 15.57"><defs><style>.cls-1{fill:#ccc;}.cls-2{fill:#999;}.cls-3{fill:#8cc63f;}.cls-4{fill:#fff;}.cls-5{fill:none;stroke:#999;stroke-linecap:round;stroke-miterlimit:10;}</style></defs><title>DownloadButton3</title><g id="Layer_2" data-name="Layer 2"><g id="Layer_1-2" data-name="Layer 1"><polygon class="cls-1" points="13.66 14.95 1.37 14.95 0.72 11.57 2.77 6.38 12.59 6.38 14.5 11.41 13.66 14.95"/><path class="cls-2" d="M12.29,6.73,14,11.61l-.74,3H1.78l-.74-3L2.71,6.73h9.58m.71-1H2L0,11.57l1,4H14l1-4L13,5.73Z"/><path class="cls-3" d="M7.5,11.06a.5.5,0,0,1-.35-.15L1.94,5.7a.49.49,0,0,1-.11-.55.49.49,0,0,1,.46-.3H4.4V1A.5.5,0,0,1,4.9.5h5.21a.5.5,0,0,1,.5.5V4.85h2.11a.5.5,0,0,1,.35.85L7.86,10.91A.51.51,0,0,1,7.5,11.06Z"/><path class="cls-4" d="M10.11,1V5.35h2.61L7.5,10.56,2.29,5.35H4.9V1h5.21m0-1H4.9a1,1,0,0,0-1,1V4.35H2.29A1,1,0,0,0,1.37,5a1,1,0,0,0,.21,1.09L6.8,11.27a1,1,0,0,0,1.41,0l5.21-5.22A1,1,0,0,0,13.64,5a1,1,0,0,0-.92-.61H11.11V1a1,1,0,0,0-1-1Z"/><polyline class="cls-5" points="0.72 11.57 4.55 11.57 5.63 13.32 9.07 13.32 10.33 11.57 14.24 11.57"/></g></g></svg>