<svg xmlns="http://www.w3.org/2000/svg" viewBox="0 0 220.1 200.25"><defs><style>.cls-1{fill:#e32d2d;}.cls-2{fill:#fff;}</style></defs><title>favorite</title>
	<g id="favorite">
		<path class="cls-1" d="M107.45,192.81C16.64,137.55,5,97.73,5,69.21c0-16.5,4.8-31.88,13.5-43.32C28.91,12.23,44.24,5,62.81,5c21.07,0,34.1,9.94,41.32,18.27a57.53,57.53,0,0,1,5.92,8.19A57.53,57.53,0,0,1,116,23.27C123.19,14.94,136.23,5,157.29,5c18.58,0,33.9,7.23,44.31,20.89,8.71,11.44,13.5,26.82,13.5,43.32,0,28.52-11.64,68.34-102.45,123.6l-2.6,1.58Z"/><path class="cls-2" d="M157.29,10c37.13,0,52.81,30.73,52.81,59.21s-13.18,66.46-100,119.33C23.19,135.67,10,97.7,10,69.21S25.68,10,62.81,10s47.24,33.09,47.24,33.09S120.16,10,157.29,10m0-10c-22.95,0-37.19,10.87-45.1,20-.75.87-1.47,1.74-2.14,2.61-.67-.87-1.38-1.74-2.14-2.61C100,10.87,85.76,0,62.81,0,42.61,0,25.92,7.91,14.53,22.86,5.16,35.17,0,51.63,0,69.21c0,20.13,6.14,38,19.34,56.37,16.77,23.3,44.74,46.69,85.51,71.5l5.2,3.17,5.2-3.17c40.77-24.81,68.74-48.2,85.52-71.5C214,107.25,220.1,89.34,220.1,69.21c0-17.58-5.16-34-14.53-46.35C194.18,7.91,177.49,0,157.29,0Z"/>
	</g>
</svg>