<svg xmlns="http://www.w3.org/2000/svg" viewBox="0 0 14.1 13.53"><defs><style>.cls-1{fill:#b3b3b3;}.cls-2{fill:#fff;}.cls-3{fill:#8cc63f;}</style></defs><title>Download1</title><g id="Layer_2" data-name="Layer 2"><g id="Layer_1-2" data-name="Layer 1"><path class="cls-1" d="M11.72,0H9.35V2.34a.91.91,0,0,1-.91.91H2.61a.91.91,0,0,1-.91-.91V0H0V13.53H14.1V2.3Z"/><rect class="cls-2" x="1.7" y="4.51" width="10.74" height="7.87" rx="1"/><path class="cls-3" d="M3.85,8.65a.36.36,0,0,1-.08-.38.34.34,0,0,1,.32-.21h1.6V5.58H8.54V8.06h1.51a.35.35,0,0,1,.24.1.28.28,0,0,1,.08.11.36.36,0,0,1-.08.38L7.07,11.88Z"/><rect class="cls-1" x="6.3" width="1.83" height="2.84"/></g></g></svg>