<?xml version="1.0" encoding="utf-8"?>
<!-- Generator: Adobe Illustrator 23.0.1, SVG Export Plug-In . SVG Version: 6.00 Build 0)  -->
<svg version="1.1" id="Layer_1" xmlns="http://www.w3.org/2000/svg" xmlns:xlink="http://www.w3.org/1999/xlink" x="0px" y="0px"
	 viewBox="0 0 31.7 31.7" style="enable-background:new 0 0 31.7 31.7;" xml:space="preserve">
<style type="text/css">
	.st0{fill:#E88828;}
	.st1{fill:#FFFFFF;}
</style>
<title>completedIcon</title>
<g>
	<g>
		<path class="st0" d="M15.9,31.2c-8.5,0-15.4-6.9-15.4-15.4c0-8.5,6.9-15.4,15.4-15.4c8.5,0,15.4,6.9,15.4,15.4
			C31.2,24.3,24.3,31.2,15.9,31.2z"/>
		<path class="st1" d="M15.9,1c8.2,0,14.9,6.7,14.9,14.9s-6.7,14.9-14.9,14.9S1,24.1,1,15.9S7.7,1,15.9,1 M15.9,0
			C7.1,0,0,7.1,0,15.9s7.1,15.9,15.9,15.9s15.9-7.1,15.9-15.9S24.6,0,15.9,0L15.9,0z"/>
	</g>
	<g>
		<path class="st1" d="M14,25.9c-0.5-0.4-0.8-0.9-0.8-1.6s0.3-1.1,0.8-1.6c0.5-0.4,1.2-0.6,1.9-0.6c0.8,0,1.4,0.2,1.9,0.6
			c0.5,0.4,0.8,0.9,0.8,1.6s-0.3,1.1-0.8,1.6s-1.1,0.6-1.9,0.6C15.1,26.6,14.5,26.4,14,25.9z M13.4,6.6h5l-0.8,13.2h-3.3L13.4,6.6z"
			/>
	</g>
</g>
</svg>
