<?xml version="1.0" encoding="utf-8"?>
<!-- Generator: Adobe Illustrator 21.1.0, SVG Export Plug-In . SVG Version: 6.00 Build 0)  -->
<svg version="1.1" id="Layer_2" xmlns="http://www.w3.org/2000/svg" xmlns:xlink="http://www.w3.org/1999/xlink" x="0px" y="0px"
	 viewBox="0 0 20 20" style="enable-background:new 0 0 20 20;" xml:space="preserve" width="20px" height="20px">
<style type="text/css">
	.st0{fill:#DCC686;}
	.st1{fill:#C1B399;}
	.st2{fill:#FFFFFF;}
	.st3{fill:#0089E5;}
</style>
<g>
	<path class="st0" d="M2,18V8h16v10H2z M2,5V4h2V3h4v1h2v1H2z"/>
	<path class="st1" d="M10,4v1H9.4h8.2H2V4h2l0-1h4l0,1H10 M18,8v10H2V8H18 M9,2H3v1H1v3h10V3H9V2.4V2z M19,7H1v12h9h9V7L19,7z"/>
</g>
<polygon class="st2" points="20,2 18,2 18,0 13,0 13,2 11,2 11,7 13,7 13,9 18,9 18,7 20,7 "/>
<polygon class="st3" points="19,3 17,3 17,1 14,1 14,3 12,3 12,6 14,6 14,8 17,8 17,6 19,6 "/>
</svg>
