<?xml version="1.0" encoding="utf-8"?>
<!-- Generator: Adobe Illustrator 22.1.0, SVG Export Plug-In . SVG Version: 6.00 Build 0)  -->
<svg version="1.1" id="Layer_1" xmlns="http://www.w3.org/2000/svg" xmlns:xlink="http://www.w3.org/1999/xlink" x="0px" y="0px"
	 viewBox="0 0 32.2 26.6" style="enable-background:new 0 0 32.2 26.6;" xml:space="preserve">
<style type="text/css">
	.st0{fill:#18AC36;}
	.st1{fill:#FFFFFF;}
	.st2{fill:none;stroke:#FFFFFF;stroke-width:1.2;stroke-miterlimit:10;}
</style>
<path class="st0" d="M11.9,26.6c-0.7,0-1.3-0.3-1.8-0.7l-9.3-9.3c-1-1-1-2.6,0-3.7l3.6-3.6c0.5-0.5,1.2-0.8,1.8-0.8S7.5,8.7,8,9.2
	l3.9,3.9L24.2,0.8C24.7,0.3,25.4,0,26,0c0.7,0,1.3,0.3,1.8,0.8l3.6,3.6c1,1,1,2.6,0,3.6L13.7,25.8C13.2,26.3,12.6,26.6,11.9,26.6z"
	/>
<title>completedIcon</title>
<path class="st1" d="M11.5,24.4l-9.3-9.3c-0.2-0.2-0.2-0.6,0-0.8l3.6-3.6c0.2-0.2,0.6-0.2,0.8,0l4.9,4.9c0.2,0.2,0.6,0.2,0.8,0
	L25.6,2.2c0.2-0.2,0.6-0.2,0.8,0l3.6,3.6c0.2,0.2,0.2,0.6,0,0.8L12.3,24.4C12.1,24.6,11.7,24.6,11.5,24.4z"/>
<path class="st2" d="M11.5,24.4l-9.3-9.3c-0.2-0.2-0.2-0.6,0-0.8l3.6-3.6c0.2-0.2,0.6-0.2,0.8,0l4.9,4.9c0.2,0.2,0.6,0.2,0.8,0
	L25.6,2.2c0.2-0.2,0.6-0.2,0.8,0l3.6,3.6c0.2,0.2,0.2,0.6,0,0.8L12.3,24.4C12.1,24.6,11.7,24.6,11.5,24.4z"/>
</svg>
