<svg xmlns="http://www.w3.org/2000/svg" viewBox="0 0 15.39 16.05"><defs><style>.cls-1{fill:#999;}.cls-2{fill:#8cc63f;}.cls-3{fill:#fff;}.cls-4{fill:#ccc;}</style></defs><title>DownloadButton</title><g id="Layer_2" data-name="Layer 2"><g id="Layer_1-2" data-name="Layer 1"><path class="cls-1" d="M13.38,6.57a1,1,0,0,0-1-1H7.29a1,1,0,0,0-1,1H5.39v9.48h10V8Zm-1,2.48h-5V6.57h3V8.36h1.28V6.58h.72Z"/><path class="cls-2" d="M2,8.55a.52.52,0,0,1-.47-.31.53.53,0,0,1,.11-.55L2.81,6.54.65,4.37a.48.48,0,0,1,0-.7l3-3A.47.47,0,0,1,4,.5H4a.47.47,0,0,1,.35.15L6.54,2.81,7.69,1.65a.54.54,0,0,1,.36-.14l.19,0A.52.52,0,0,1,8.55,2v6a.51.51,0,0,1-.5.5Z"/><path class="cls-3" d="M4,1,6.54,3.52,8.05,2v6H2L3.52,6.54,1,4,4,1M4,0a1,1,0,0,0-.71.29l-3,3a1,1,0,0,0,0,1.42L2.1,6.54l-.8.8a1,1,0,0,0-.22,1.09A1,1,0,0,0,2,9.05h6a1,1,0,0,0,1-1V2a1,1,0,0,0-.62-.93A1.06,1.06,0,0,0,8.05,1a1,1,0,0,0-.71.29l-.8.8L4.73.29A1.05,1.05,0,0,0,4,0Z"/><polygon class="cls-4" points="6.26 9.83 6.26 15.16 14.57 15.16 14.57 8.36 13.39 7.55 13.39 9.83 6.26 9.83"/><rect class="cls-3" x="7.29" y="11.05" width="6.19" height="3"/></g></g></svg>