<svg xmlns="http://www.w3.org/2000/svg" viewBox="0 0 15 16"><defs><style>.cls-1{fill:#bababa;}.cls-2{fill:#eaeaea;}.cls-3{fill:#8cc63f;}.cls-4{fill:#fff;}</style></defs><title>DownloadButton2</title><g id="Layer_2" data-name="Layer 2"><g id="Layer_1-2" data-name="Layer 1"><path class="cls-1" d="M13.15,4.31A2.18,2.18,0,0,0,11,2.22h-.05a2.66,2.66,0,0,0-5.29.37,2.36,2.36,0,0,0-.8-.14A2.67,2.67,0,0,0,2.16,5.12a1.94,1.94,0,0,0,0,.24,1.54,1.54,0,0,0-.43-.06,1.75,1.75,0,0,0,0,3.5h11a2.26,2.26,0,0,0,.41-4.49Z"/><path class="cls-2" d="M1.75,7.8A.76.76,0,0,1,1,7.05a.82.82,0,0,1,.6-.84,2.42,2.42,0,0,1,1.46.2A2.08,2.08,0,0,1,4.53,3.54a3.27,3.27,0,0,1,2.06.4A2,2,0,0,1,8.3,1a1.7,1.7,0,0,1,1.78,2.22c1.2-.75,2.85.8,2.11,1.93C13,5.07,14.1,5.22,14,6.53A1.3,1.3,0,0,1,12.74,7.8Z"/><path class="cls-3" d="M7.5,15.5a.47.47,0,0,1-.35-.15L2.88,11.08a.5.5,0,0,1,.35-.85H4.87V7.17a.5.5,0,0,1,.5-.5H9.64a.5.5,0,0,1,.5.5v3.06h1.63a.5.5,0,0,1,.47.31.51.51,0,0,1-.11.54L7.86,15.35A.49.49,0,0,1,7.5,15.5Z"/><path class="cls-4" d="M9.64,7.17v3.56h2.13L7.5,15,3.23,10.73H5.37V7.17H9.64m0-1H5.37a1,1,0,0,0-1,1V9.73H3.23a1,1,0,0,0-.7,1.71L6.8,15.71a1,1,0,0,0,.7.29,1,1,0,0,0,.71-.29l4.27-4.27a1,1,0,0,0-.71-1.71H10.64V7.17a1,1,0,0,0-1-1Z"/></g></g></svg>