<?xml version="1.0" encoding="utf-8"?>
<!-- Generator: Adobe Illustrator 22.0.0, SVG Export Plug-In . SVG Version: 6.00 Build 0)  -->
<svg version="1.1" id="Layer_1" xmlns="http://www.w3.org/2000/svg" xmlns:xlink="http://www.w3.org/1999/xlink" x="0px" y="0px"
	 viewBox="0 0 20 20" style="enable-background:new 0 0 20 20;" xml:space="preserve" width="20px" height="20px">
<style type="text/css">
	.st0{fill:#F7A872;}
	.st1{display:none;fill:#E26D13;}
	.st2{fill:#E26D13;}
	.st3{fill:#2846C6;stroke:#FFFFFF;stroke-width:0.5;stroke-miterlimit:10;}
</style>
<g id="Layer_2_1_">
	<g>
		<path class="st0" d="M15.1,6.3"/>
		<path class="st0" d="M6.6,14.7C6.6,14.7,6.6,14.7,6.6,14.7C6.6,14.7,6.6,14.7,6.6,14.7z"/>
		<path class="st0" d="M9.4,15.9c0.5,0.2,1,0.3,1.5,0.3c3.1,0,5.7-2.5,5.7-5.7c0-0.3-0.1-0.7-0.2-1C14.8,11.8,11.7,14.4,9.4,15.9z"
			/>
	</g>
</g>
<circle class="st1" cx="10.5" cy="10.1" r="6"/>
<path class="st0" d="M11,4.9c-3.1,0-5.7,2.5-5.7,5.7c0,1.7,0.8,3.3,2,4.3c1.1-0.9,3.2-2.8,4.3-3.9c1-0.9,2.5-2.6,3.7-4.1
	C14.3,5.7,12.7,4.9,11,4.9z"/>
<path class="st2" d="M19.4,2.8c-0.6-0.6-3.2,1-5.3,2c0.5,0.3,1,0.6,1.4,1.1c0.9-0.5,1.4-0.8,1.5-0.6c0.2,0.2-0.3,1.1-1.4,2.4l0,0
	c-2.3,2.6-2.1,2.3-3.9,4c-1.5,1.4-4.2,3.6-4.2,3.6l0,0c-1.4,1-2.3,1.5-2.5,1.3c-0.2-0.2,0.1-0.8,0.9-1.6c-0.4-0.5-0.8-1.1-1-1.7
	c-1.4,2-2.9,5.1-2.3,5.7C3.5,19.7,7,17.6,9.3,16s5.5-4.2,7.2-6.6S20.3,3.7,19.4,2.8z"/>
<polygon id="XMLID_13_" class="st3" points="8.6,8.4 8.3,1.6 6,4 3.4,1.6 1.6,3.5 4.2,5.9 1.8,8.4 "/>
</svg>
