<?xml version="1.0" encoding="utf-8"?>
<!-- Generator: Adobe Illustrator 22.0.0, SVG Export Plug-In . SVG Version: 6.00 Build 0)  -->
<svg version="1.1" id="Layer_1" xmlns="http://www.w3.org/2000/svg" xmlns:xlink="http://www.w3.org/1999/xlink" x="0px" y="0px"
	 viewBox="0 0 20 20" style="enable-background:new 0 0 20 20;" xml:space="preserve" width="20px" height="20px">
<style type="text/css">
	.st0{fill:#E26D13;}
</style>
<path class="st0" d="M4,11.1v7.5c0.4,0.3,1.9,0.3,2.5,0v-7.5C5.9,10.8,4.4,10.8,4,11.1z"/>
<path class="st0" d="M13.4,11.1v7.5c0.6,0.3,2.1,0.3,2.5,0v-7.5C15.5,10.8,14,10.8,13.4,11.1z"/>
<path class="st0" d="M1.9,7.7C3.3,3.5,6.8,1.3,10,1.3v1.6H9.9c-2.3,0-4.2,1.2-5.5,3C4.1,6.3,3.9,6.7,3.6,7.1C3.2,7.8,3.1,8.7,3,9.6
	c0,0.9,0,1.8,0,2.8c0,1.9,0,3.7,0,5.6c0,0-0.7,0-1.1-0.5s-0.4-2.6-0.4-2.6v-3C1.6,11.9,1.5,8.7,1.9,7.7z"/>
<path class="st0" d="M18.1,7.7c-1.4-4.2-4.9-6.4-8.1-6.4v1.6h0.1c2.3,0,4.2,1.2,5.5,3c0.3,0.4,0.5,0.8,0.7,1.2
	c0.4,0.8,0.6,1.7,0.6,2.6s0,1.8,0,2.8c0,1.9,0,3.7,0,5.6c0,0,0.7,0,1.1-0.5s0.4-2.6,0.4-2.6v-3C18.4,11.9,18.5,8.7,18.1,7.7z"/>
</svg>
