<?xml version="1.0" encoding="utf-8"?>
<!-- Generator: Adobe Illustrator 21.1.0, SVG Export Plug-In . SVG Version: 6.00 Build 0)  -->
<svg version="1.1" id="Capa_1" xmlns="http://www.w3.org/2000/svg" xmlns:xlink="http://www.w3.org/1999/xlink" x="0px" y="0px"
	 viewBox="0 0 20 20" style="enable-background:new 0 0 20 20;" xml:space="preserve" width="20px" height="20px">
<style type="text/css">
	.st0{fill:#BABABA;}
	.st1{display:none;}
	.st2{display:inline;}
	.st3{fill:#D80027;}
	.st4{fill:#FFFFFF;}
</style>
<polygon class="st0" points="19,19 3,19 3,1 14.3,1 19,5.7 "/>
<g class="st1">
	<g class="st2">
		<path class="st3" d="M14.7,270c-7.2,0-11.9,0.6-14.7,1.3v93.8c2.8,0.6,7.2,0.6,11.3,0.6c29.3,0.2,48.5-15.9,48.5-50.1
			C60,285.8,42.6,270,14.7,270z"/>
		<path class="st3" d="M-110.5,269.5c-6.6,0-11.1,0.6-13.4,1.3v42.4c2.8,0.6,6.1,0.8,10.8,0.8c17.2,0,27.9-8.7,27.9-23.4
			C-85.2,277.4-94.4,269.5-110.5,269.5z"/>
		<path class="st3" d="M241.9-39.2c0-2.7-0.9-5.5-2.8-7.6L122.9-179.5c0,0-0.1,0-0.1-0.1c-0.7-0.8-1.5-1.4-2.4-2
			c-0.2-0.1-0.5-0.4-0.8-0.5c-0.7-0.4-1.5-0.7-2.4-0.9c-0.2-0.1-0.5-0.1-0.6-0.2c-0.8-0.2-1.8-0.4-2.7-0.4h-285.4
			c-13.1,0-23.6,10.6-23.6,23.6v555.1c0,13.1,10.6,23.6,23.6,23.6h389.8c13.1,0,23.6-10.6,23.6-23.6V-37.9
			C242-38.4,242-38.7,241.9-39.2z M-66.4,323.8c-10.9,10.4-27.4,15.1-46.5,15.1c-4.2,0-8.1-0.2-11.1-0.6v51.2H-156V248.1
			c10-1.6,24-2.9,43.8-2.9c20,0,34.2,3.9,43.8,11.5c9.2,7.2,15.3,19.2,15.3,33.2C-53.2,303.8-57.8,315.6-66.4,323.8z M70.4,372.5
			c-15.1,12.5-38,18.5-66,18.5c-16.8,0-28.7-1.1-36.8-2.1V248.1c11.9-1.9,27.4-2.9,43.8-2.9c27.2,0,44.8,4.9,58.7,15.3
			c14.9,11.1,24.2,28.7,24.2,54C94.2,341.9,84.2,360.7,70.4,372.5z M203.1,272.7H148v32.7h51.4v26.4H148v57.6h-32.5V246.2h87.5
			V272.7z M-171.3,217.5v-377.4h273.5v120.8c0,6.5,5.3,11.8,11.8,11.8h104.4v244.8L-171.3,217.5L-171.3,217.5z"/>
	</g>
</g>
<polygon class="st4" points="18,18 4,18 4,2 14.3,2 18,5.6 "/>
<polygon class="st0" points="13.9,1.2 18.8,6.1 18.8,7 13,7 13,1.2 "/>
<polygon class="st4" points="13.9,2.5 17.5,6.1 13.9,6.1 "/>
<rect x="1" y="3" class="st3" width="9" height="4"/>
<path class="st3" d="M14.9,13.1c0,0-0.6,0-1.4,0c-0.2,0-0.5,0-0.8,0C11,11.9,9.7,10.8,9,10.2c0-0.1,0-0.1,0-0.1
	c0.1-0.9,0-1.6-0.4-1.9C8.5,7.8,8.3,7.7,7.9,7.8c-0.1,0-0.5,0.2-0.6,0.6C7.2,8.8,7.5,9.2,7.9,9.8c0,0,0.2,0.2,0.5,0.5
	c-0.2,0.9-0.7,2.9-1.1,4c-0.6,0.4-1.2,0.7-1.5,1.2l0,0l0,0c0,0.1-0.2,0.5-0.1,0.8c0.1,0.1,0.2,0.2,0.4,0.4l0,0c0,0,0,0,0.1,0
	c0.4,0,1.1-0.1,1.5-1.6l0.1-0.4c1.5-0.7,3.3-0.9,4.7-0.9c0.7,0.5,1.4,0.9,2,1.3l0,0c0,0,0.4,0.1,0.7,0.1l0,0c0.5,0,0.8-0.2,0.9-0.8
	l0,0c0-0.2,0-0.6-0.2-0.7C15.7,13.1,15,13.1,14.9,13.1z M6.3,16.1L6.3,16.1c0-0.1,0-0.2,0-0.4c0.4-0.2,0.6-0.5,0.9-0.7
	C6.9,16.1,6.4,16.1,6.3,16.1z M8.4,9.5L8.4,9.5C7.8,8.9,7.8,8.6,7.9,8.5c0-0.1,0.2-0.1,0.2-0.2c0.1,0,0.1,0,0.2,0
	c0.1,0.1,0.2,0.5,0.2,1.2C8.4,9.5,8.4,9.5,8.4,9.5z M8.1,13.9L8.1,13.9L8.1,13.9c0.2-0.9,0.6-2.4,0.8-3.2l0,0l0,0
	c0.7,0.6,1.6,1.5,2.9,2.4l0,0l0,0C10.8,13.2,9.4,13.5,8.1,13.9z M15.7,14.3c-0.1,0.4-0.2,0.4-0.5,0.4l0,0c-0.2,0-0.4-0.1-0.4-0.1
	c-0.5-0.2-0.9-0.6-1.4-0.8l0,0c0.8,0,1.3,0,1.4,0c0.1,0,0.6,0.1,0.7,0.2C15.7,14.1,15.7,14.2,15.7,14.3z"/>
</svg>
