<?xml version="1.0" encoding="utf-8"?>
<!-- Generator: Adobe Illustrator 22.0.0, SVG Export Plug-In . SVG Version: 6.00 Build 0)  -->
<svg version="1.1" id="Layer_1" xmlns="http://www.w3.org/2000/svg" xmlns:xlink="http://www.w3.org/1999/xlink" x="0px" y="0px"
	 viewBox="0 0 20 20" style="enable-background:new 0 0 20 20;" xml:space="preserve" width="20px" height="20px">
<style type="text/css">
	.st0{fill:#E26D13;}
</style>
<rect x="8" y="15" class="st0" width="5" height="4"/>
<path class="st0" d="M10.5,1.2C7.5,1.2,3,3.5,3,7c0,0.1,0,0,0,0h4.7c0.1-1.2,1.2-2,2.5-2c1.2,0,2.3,1,2.3,2.3c0,1.6-1.5,1.6-3,2.9
	C8.6,10.9,8,12,8,13.2V14h5v-0.6c0-0.5,0.3-0.9,0.7-1.1s0.8-0.5,1.1-0.8c0.8-0.6,1.7-1.3,2.2-2.2c0.4-0.7,0.6-1.4,0.6-2.2
	C17.5,2.4,13.4,1.2,10.5,1.2z"/>
</svg>
