<svg xmlns="http://www.w3.org/2000/svg" viewBox="0 0 14.1 13.53"><defs><style>.cls-1{fill:#999;}.cls-2{fill:#ccc;}.cls-3{fill:#fff;}.cls-4{fill:#8cc63f;}</style></defs><title>Download2</title><g id="Layer_2" data-name="Layer 2"><g id="Layer_1-2" data-name="Layer 1"><path class="cls-1" d="M11.72,0H9.91L9.47,1H2.85L2.26,0H0V13.53H14.1V2.3Z"/><polygon class="cls-2" points="0.94 1.03 0.94 12.61 13.19 12.61 13.19 2.72 11.4 1.03 2.03 1.03 0.94 1.03"/><rect class="cls-3" x="2.26" y="4.51" width="9.63" height="7.06" rx="1"/><path class="cls-4" d="M4.3,8.05a.3.3,0,0,1,.21-.51H5.89V5.41H8.34V7.54H9.63a.31.31,0,0,1,.21.09.36.36,0,0,1,.07.1.29.29,0,0,1-.07.32L7.07,10.82Z"/><path class="cls-3" d="M2.26,0H9.91a0,0,0,0,1,0,0V2.34A.91.91,0,0,1,9,3.25H3.16a.91.91,0,0,1-.91-.91V0A0,0,0,0,1,2.26,0Z"/><rect class="cls-1" x="6.86" y="0.2" width="1.83" height="2.64"/></g></g></svg>