<?xml version="1.0" encoding="utf-8"?>
<!-- Generator: Adobe Illustrator 21.1.0, SVG Export Plug-In . SVG Version: 6.00 Build 0)  -->
<svg version="1.1" id="Layer_2" xmlns="http://www.w3.org/2000/svg" xmlns:xlink="http://www.w3.org/1999/xlink" x="0px" y="0px"
	 viewBox="0 0 17 17" style="enable-background:new 0 0 17 17;" xml:space="preserve" width="17px" height="17px">
<style type="text/css">
	.st0{fill:#DCC686;}
	.st1{fill:#C1B399;}
	.st2{fill:#FFFFFF;}
	.st3{fill:#0089E5;}
</style>
<g>
	<path class="st0" d="M1.5,15.5v-9h14v9H1.5z M1.5,4.5v-1h2v-1h4v1h8v1H1.5z"/>
	<path class="st1" d="M7,3v1h1h7H4V3H7 M15,7v8H8.5H2V7H15 M8,2H3v1H1v2h15V3H8V2L8,2z M16,6H1v10h7.5H16V6L16,6z"/>
</g>
<polygon class="st2" points="17,2 15,2 15,0 11,0 11,2 9,2 9,6 11,6 11,8 15,8 15,6 17,6 "/>
<polygon class="st3" points="16,3 14,3 14,1 12,1 12,3 10,3 10,5 12,5 12,7 14,7 14,5 16,5 "/>
</svg>
