<?xml version="1.0" encoding="utf-8"?>
<!-- Generator: Adobe Illustrator 21.1.0, SVG Export Plug-In . SVG Version: 6.00 Build 0)  -->
<svg version="1.1" id="Capa_1" xmlns="http://www.w3.org/2000/svg" xmlns:xlink="http://www.w3.org/1999/xlink" x="0px" y="0px"
	 viewBox="0 0 17 17" style="enable-background:new 0 0 17 17;" xml:space="preserve" width="17px" height="17px">
<style type="text/css">
	.st0{fill:#BABABA;}
	.st1{display:none;}
	.st2{display:inline;}
	.st3{fill:#D80027;}
	.st4{fill:#FFFFFF;}
</style>
<polygon class="st0" points="15,17 2,17 2,2 10.9,2 15,5.9 "/>
<g class="st1">
	<g class="st2">
		<path class="st3" d="M12.5,229.5c-6.1,0-10.1,0.5-12.5,1.1v79.7c2.4,0.5,6.1,0.5,9.6,0.5c24.9,0.2,41.2-13.5,41.2-42.6
			C51,242.9,36.2,229.5,12.5,229.5z"/>
		<path class="st3" d="M-93.9,229.1c-5.6,0-9.4,0.5-11.4,1.1v36c2.4,0.5,5.2,0.7,9.2,0.7c14.6,0,23.7-7.4,23.7-19.9
			C-72.4,235.8-80.2,229.1-93.9,229.1z"/>
		<path class="st3" d="M205.6-33.3c0-2.3-0.8-4.7-2.4-6.5l-98.7-112.8c0,0-0.1,0-0.1-0.1c-0.6-0.7-1.3-1.2-2-1.7
			c-0.2-0.1-0.4-0.3-0.7-0.4c-0.6-0.3-1.3-0.6-2-0.8c-0.2-0.1-0.4-0.1-0.5-0.2c-0.7-0.2-1.5-0.3-2.3-0.3h-242.6
			c-11.1,0-20.1,9-20.1,20.1v471.8c0,11.1,9,20.1,20.1,20.1h331.3c11.1,0,20.1-9,20.1-20.1v-368C205.7-32.6,205.7-32.9,205.6-33.3z
			 M-56.4,275.2C-65.7,284-79.7,288-95.9,288c-3.6,0-6.9-0.2-9.4-0.5V331h-27.3V210.9c8.5-1.4,20.4-2.5,37.2-2.5
			c17,0,29.1,3.3,37.2,9.8c7.8,6.1,13,16.3,13,28.2C-45.2,258.2-49.1,268.3-56.4,275.2z M59.8,316.6C47,327.2,27.5,332.3,3.7,332.3
			c-14.3,0-24.4-0.9-31.3-1.8V210.9c10.1-1.6,23.3-2.5,37.2-2.5c23.1,0,38.1,4.2,49.9,13c12.7,9.4,20.6,24.4,20.6,45.9
			C80.1,290.6,71.6,306.6,59.8,316.6z M172.6,231.8h-46.8v27.8h43.7V282h-43.7v49H98.2V209.3h74.4V231.8z M-145.6,184.9v-320.8H86.9
			v102.7c0,5.5,4.5,10,10,10h88.7v208.1L-145.6,184.9L-145.6,184.9z"/>
	</g>
</g>
<polygon class="st4" points="14,16 3,16 3,3 10,3 14,7 "/>
<polygon class="st0" points="10,3 14,7 10,7 "/>
<polygon class="st4" points="11,3 14,6 11,6 "/>
<rect x="1" y="4" class="st3" width="8" height="3"/>
<path class="st3" d="M11.8,12c0,0-0.5,0-1.2,0c-0.2,0-0.4,0-0.7,0c-1.4-1-2.5-2-3.1-2.5c0-0.1,0-0.1,0-0.1c0.1-0.8,0-1.4-0.3-1.6
	C6.4,7.5,6.2,7.4,5.9,7.5C5.8,7.5,5.5,7.7,5.4,8s0.1,0.7,0.5,1.2c0,0,0.2,0.2,0.4,0.4c-0.2,0.8-0.6,2.5-0.9,3.4
	c-0.5,0.3-1,0.6-1.3,1l0,0l0,0c0,0.1-0.2,0.4-0.1,0.7c0.1,0.1,0.2,0.2,0.3,0.3l0,0c0,0,0,0,0.1,0c0.3,0,0.9-0.1,1.3-1.4l0.1-0.3
	c1.3-0.6,2.8-0.8,4-0.8c0.6,0.4,1.2,0.8,1.7,1.1l0,0c0,0,0.3,0.1,0.6,0.1l0,0c0.4,0,0.7-0.2,0.8-0.7l0,0c0-0.2,0-0.5-0.2-0.6
	C12.5,12,11.9,12,11.8,12z M4.5,14.5L4.5,14.5c0-0.1,0-0.2,0-0.3C4.8,14,5,13.8,5.3,13.6C5,14.5,4.6,14.5,4.5,14.5z M6.3,8.9
	L6.3,8.9C5.8,8.4,5.8,8.2,5.9,8.1C5.9,8,6.1,8,6.1,7.9c0.1,0,0.1,0,0.2,0c0.1,0.1,0.2,0.4,0.2,1C6.3,8.9,6.3,8.9,6.3,8.9z M6,12.7
	L6,12.7L6,12.7c0.2-0.8,0.5-2,0.7-2.7l0,0l0,0c0.6,0.5,1.4,1.3,2.5,2l0,0l0,0C8.3,12.1,7.1,12.3,6,12.7z M12.5,13
	c-0.1,0.3-0.2,0.3-0.4,0.3l0,0c-0.2,0-0.3-0.1-0.3-0.1c-0.4-0.2-0.8-0.5-1.2-0.7l0,0c0.7,0,1.1,0,1.2,0c0.1,0,0.5,0.1,0.6,0.2
	C12.5,12.8,12.5,12.9,12.5,13z"/>
</svg>
