<?xml version="1.0" standalone="no"?>
<!DOCTYPE svg PUBLIC "-//W3C//DTD SVG 1.1//EN" "http://www.w3.org/Graphics/SVG/1.1/DTD/svg11.dtd" >
<svg xmlns="http://www.w3.org/2000/svg">
<metadata>Generated by IcoMoon</metadata>
<defs>
<font id="laz-icons" horiz-adv-x="1024">
<font-face units-per-em="1024" ascent="960" descent="-64" />
<missing-glyph horiz-adv-x="1024" />
<glyph unicode="&#x20;" horiz-adv-x="512" d="" />
<glyph unicode="&#xe900;" glyph-name="audioC" d="M835.174 910.029l-57.754-57.754c101.376-98.304 159.13-249.856 159.13-415.13 0-160.768-56.115-310.682-152.986-408.986l57.754-57.754c112.435 113.869 176.333 284.058 176.333 466.739 1.638 185.754-65.536 359.014-182.477 472.883zM696.115 775.885l-49.971-49.971c68.608-67.174 109.363-174.899 109.363-287.13 0-110.797-39.117-213.811-104.653-282.624l49.971-49.971c79.667 81.101 124.928 202.957 124.928 332.39 1.638 132.71-46.899 256-129.638 337.306zM64.102 577.638h265.421v-296.55h-265.421v296.55zM344.883 299.725c0-18.637-15.565-34.406-34.406-34.406h-258.867c-18.637 0-34.406 15.565-34.406 34.406v259.072c0 18.637 15.565 34.406 34.406 34.406h259.072c18.637 0 34.406-15.565 34.406-34.406v-259.072zM95.232 312.218h187.392v218.522h-187.392c0 0 0-218.522 0-218.522zM501.146 74.854l-359.014 362.291 359.014 362.086zM497.869 40.653c-9.421 0-17.203 3.072-24.986 9.421l-359.014 363.52c-12.493 14.131-12.493 34.406 0 48.333l359.014 362.291c9.421 9.421 24.986 12.493 37.478 7.782s21.914-17.203 21.914-31.13v-724.378c0-14.131-7.782-26.624-21.914-31.13-4.506-3.277-7.782-4.71-12.493-4.71zM192.102 437.146l276.275-279.347v558.694l-276.275-279.347z" />
<glyph unicode="&#xe901;" glyph-name="eyeC" d="M712.192 319.488c0-111.129-90.087-201.216-201.216-201.216s-201.216 90.087-201.216 201.216c0 111.129 90.087 201.216 201.216 201.216s201.216-90.087 201.216-201.216zM208.896 381.44c47.104 153.6 164.864 220.672 302.080 220.672s254.976-67.072 302.080-220.672h201.728c-53.248 245.76-271.36 402.944-503.808 402.944s-450.56-157.184-503.808-402.944h201.728z" />
<glyph unicode="&#xe902;" glyph-name="highlighterC" d="M1009.992 689.506l-625.886-625.886-250.528 250.528 625.886 625.886 250.528-250.528zM332.39 39.014c-67.174 17.203-117.146-7.782-154.624-45.261l-109.363 109.363c39.117 35.84 59.392 92.16 45.261 154.624l218.726-218.726zM8.869 38.562l37.507 37.507 100.501-100.501-37.507-37.507-100.501 100.501z" />
<glyph unicode="&#xe903;" glyph-name="journalC" d="M360.653 546.304h327.885v-46.899h-327.885v46.899zM360.653 624.333h327.885v-46.899h-327.885v46.899zM238.797 257.536c0 21.914-18.637 54.682-40.55 54.682h-81.101c-21.914 0-39.117-32.768-39.117-54.682s18.637-54.682 40.55-54.682h81.101c20.48 0 39.117 32.768 39.117 54.682zM117.146 452.71h81.101c21.914 0 40.55 24.986 40.55 46.899s-18.637 46.899-40.55 46.899h-81.101c-21.914 0-40.55-24.986-40.55-46.899 1.434-21.914 18.637-46.899 40.55-46.899zM117.146 686.797h81.101c21.914 0 40.55 32.768 40.55 54.682s-18.637 54.682-40.55 54.682h-81.101c-21.914 0-39.117-32.768-39.117-54.682s17.203-54.682 39.117-54.682zM881.869 889.754h-85.811v12.493c0 21.914-12.493 34.406-35.84 34.406h-594.739c-21.914 0-39.117-12.493-39.117-34.406v-74.957h71.885c43.622 0 81.101-42.189 81.101-85.811s-35.84-85.811-81.101-85.811h-71.885v-78.029h71.885c43.622 0 81.101-34.406 81.101-78.029s-35.84-78.234-81.101-78.234h-71.885v-78.029h71.885c43.622 0 81.101-42.189 81.101-85.811s-35.84-85.811-81.101-85.811h-71.885v-115.507c0-21.914 90.522-118.579 112.435-118.579h644.506c21.914 0 39.117 17.203 39.117 39.117v872.448c0.205 21.914-16.998 40.55-40.55 40.55zM313.754 671.232h421.478v-218.522h-421.478v218.522zM844.39 379.392v-363.725h-561.766v46.899h480.666c21.914 0 35.84 12.493 35.84 34.406v730.317h46.899v-448.102h-1.638z" />
<glyph unicode="&#xe904;" glyph-name="listenC" d="M992.666 242.381c10.035 45.466 15.36 93.184 15.36 142.131-0.205 317.85-222.208 575.283-496.026 575.283s-495.821-257.434-495.821-575.078c0-49.152 5.325-96.666 15.36-142.131-16.179-29.286-25.395-63.283-25.395-99.738 0-72.704 36.864-135.987 91.546-170.189 8.397-5.12 19.046 0.819 19.046 10.65v319.078c0 9.83-10.854 15.77-19.046 10.65-1.843-1.229-3.891-2.458-5.734-3.686-2.458 23.962-3.482 48.333-2.867 73.114 6.144 268.083 195.584 479.846 422.912 479.846s416.768-211.763 422.912-479.846c0.614-24.781-0.41-49.152-2.867-73.114-1.843 1.229-3.891 2.458-5.734 3.686-8.397 5.12-19.046-0.819-19.046-10.65v-319.078c0-9.83 10.854-15.77 19.046-10.65 54.682 34.202 91.546 97.485 91.546 170.189 0 36.454-9.216 70.451-25.19 99.533zM792.576 353.792v0c-37.274 0-67.584-30.31-67.584-67.584v-282.624c0-37.274 30.31-67.584 67.584-67.584v0c37.274 0 67.584 30.31 67.584 67.584v282.624c0 37.274-30.31 67.584-67.584 67.584zM231.424 353.792v0c-37.274 0-67.584-30.31-67.584-67.584v-282.624c0-37.274 30.31-67.584 67.584-67.584v0c37.274 0 67.584 30.31 67.584 67.584v282.624c0 37.274-30.31 67.584-67.584 67.584z" />
<glyph unicode="&#xe905;" glyph-name="pegPersonC" d="M500.275 436.275c0 0-156.336 7.817-152.427-191.511s58.626-300.947 152.427-300.947 144.611 101.618 152.427 300.947c7.817 199.328-152.427 191.511-152.427 191.511zM769.954 698.137c0-140.306-113.74-254.046-254.046-254.046s-254.046 113.74-254.046 254.046c0 140.306 113.74 254.046 254.046 254.046s254.046-113.74 254.046-254.046z" />
<glyph unicode="&#xe906;" glyph-name="quizC" d="M145.818 595.661v0 0zM656.384 50.688c0-64.472-52.264-116.736-116.736-116.736s-116.736 52.264-116.736 116.736c0 64.472 52.264 116.736 116.736 116.736s116.736-52.264 116.736-116.736zM516.301 957.338c-201.728 0-365.773-161.178-370.483-361.677h248.422c4.506 63.488 57.344 113.459 122.061 113.459 47.104 0 88.678-26.624 109.158-65.536 4.506-11.674 59.187-109.568-79.667-190.669-122.266-71.27-122.47-189.645-122.47-224.666v-11.878h233.472c-1.229 9.83-1.229 18.842 0 27.443 3.686 19.046 15.155 45.056 47.718 65.126 57.754 35.43 180.224 125.133 182.477 282.214-2.662 202.547-167.526 366.182-370.688 366.182z" />
<glyph unicode="&#xe907;" glyph-name="readC" d="M2.048 97.382c162.202 17.818 324.608-27.853 487.424-144.998v829.85c-164.454 122.061-326.451 163.84-487.424 144.998v-829.85zM1024 97.382c-162.202 17.818-324.608-27.853-487.424-144.998v829.85c164.454 122.061 326.451 163.84 487.424 144.998v-829.85z" />
<glyph unicode="&#xe908;" glyph-name="starC" d="M514.048 933.376l169.779-302.899 340.787-67.994-235.725-255.181 40.55-344.883-315.392 145.203-315.597-145.203 40.755 344.883-235.725 255.181 340.582 67.994z" />
<glyph unicode="&#xe909;" glyph-name="vocabC" d="M335.667 563.507c-6.144 18.637-10.854 43.622-15.565 62.464h-1.638c-4.71-18.637-9.421-43.622-15.565-62.464l-18.637-68.608h71.885l-20.48 68.608zM568.115 430.797c0-18.637 12.493-28.058 28.058-28.058 18.637 0 32.768 12.493 37.478 26.624 1.638 3.072 1.638 7.782 1.638 12.493v24.986c-37.478 1.434-67.174-7.987-67.174-36.045zM867.942 885.043h-79.667v14.131c0 21.914-18.637 40.55-40.55 40.55h-594.944c-21.914 0-40.55-18.637-40.55-40.55v-842.957c0-21.914 92.16-120.218 113.869-120.218h641.638c21.914 0 40.55 18.637 40.55 40.55v867.942c0.205 23.347-16.998 40.55-40.346 40.55zM591.667 547.942c-23.347 0-49.971-7.782-65.536-17.203l-14.131 46.899c15.565 9.421 48.333 20.275 92.16 20.275 78.029 0 103.014-46.899 103.014-101.376v-82.739c0-21.914 1.638-43.622 3.072-57.754h-65.536l-4.71 23.347c-15.565-18.637-39.117-28.058-67.174-28.058-48.333 0-76.39 34.406-76.39 71.885 0 60.826 54.682 90.522 137.421 90.522v3.072c0 12.288-6.349 31.13-42.189 31.13zM174.899 355.84l98.304 324.608h96.87l99.738-324.608h-79.667l-24.986 82.739h-92.16l-23.142-82.739h-74.957zM828.826 377.754v-360.653h-561.971v40.55h479.437c21.914 0 40.55 18.637 40.55 40.55v721.306h40.55v-441.754h1.434z" />
<glyph unicode="&#xe90a;" glyph-name="sci-earth" d="M514.56 947.2c-278.528 0-505.344-226.816-505.344-505.344s226.816-505.344 505.344-505.344 505.344 226.816 505.344 505.344c0 279.040-226.816 505.344-505.344 505.344zM844.8 617.472c0-33.28-98.304-15.872-117.76 22.528-19.968 38.4-110.080 24.064-110.080 24.064 27.648 87.552 134.144-13.312 134.144-13.312s93.696-0.512 93.696-33.28zM46.080 444.416c10.24-17.92 20.992-35.328 20.992-35.328-8.704-66.56 35.84-147.456 58.368-168.448 14.848-13.824 19.456-58.368 23.552-91.136-64.512 79.872-102.912 181.76-102.912 292.352 0 1.024 0 1.536 0 2.56zM514.56-26.624c-85.504 0-165.376 23.552-234.496 63.488-28.16 110.592 50.688 214.528 69.632 233.984 19.968 19.968-2.56 39.936-24.576 47.616-22.016 8.192-77.824 13.312-128 86.528-50.688 73.216-100.864 37.376-100.864 37.376-29.184 31.744-51.712 103.424 10.752 141.824s111.616 104.96 123.392 128.512 24.064-5.12 46.080 0c22.016 5.12 12.288 35.84 7.168 58.368s-25.088 79.872 39.936 90.112 9.216-30.72 38.4-62.464c26.112-28.672 182.784 82.944 215.552 107.008 47.616-6.656 93.184-19.968 135.168-39.424-33.792-12.288-84.48-34.304-75.776-54.272 13.312-29.184 20.48-53.248-1.024-53.248s-101.376 17.408-103.936-53.248c-2.56-70.144 34.304-56.832 34.304-56.832s-144.896-102.4-79.872-206.848 140.8-25.088 160.768-49.152c19.968-24.064 66.56-100.864 58.368-127.488s-22.528-55.808 0-100.864c22.528-45.056 22.528-71.68 40.96-73.216s144.896 131.584 143.36 185.856c-1.536 54.272 30.72 92.672 45.056 120.832 14.848 27.648 14.848 38.4 0 60.928 0 0 26.112 18.432 41.472 58.88 4.096-25.088 6.656-50.176 6.656-76.288 0-257.536-209.92-467.968-468.48-467.968z" />
<glyph unicode="&#xe90b;" glyph-name="sci-life" d="M641.024 722.944c-5.632 15.36-13.312 29.184-22.528 41.472 10.752 18.944 31.744 47.104 63.488 58.368 6.656-6.656 16.384-10.752 26.624-10.752 20.992 0 37.888 16.896 37.888 37.888s-16.896 37.888-37.888 37.888c-19.456 0-34.816-14.848-36.864-33.28-36.864-12.288-61.44-41.472-76.288-64.512-23.552 20.992-52.736 33.792-84.48 33.792-28.16 0-54.784-9.728-76.8-27.136-16.896 24.576-44.544 52.736-84.992 61.44-4.096 16.896-18.432 29.696-36.352 29.696-20.992 0-37.888-16.896-37.888-37.888s16.896-37.888 37.888-37.888c11.776 0 21.504 5.632 28.672 13.824 32.768-7.168 55.296-32.256 68.608-52.736-12.288-14.336-22.528-31.232-29.696-50.176-7.168-18.432 9.728-37.376 26.112-30.208 32.256 15.36 67.584 23.552 104.448 23.552s71.68-8.192 104.448-23.552c15.872-7.168 32.768 11.776 25.6 30.208zM423.424 664.064c-39.424-15.36-75.264-40.448-104.96-73.216-34.816 45.056-79.872 72.192-108.544 86.016-0.512 23.552-19.456 42.496-43.008 42.496s-43.008-19.456-43.008-43.008c0-23.552 19.456-43.008 43.008-43.008 12.288 0 23.040 5.12 30.72 12.8 26.624-13.312 68.608-39.424 98.816-81.92-36.352-50.176-59.904-113.152-65.536-182.272-30.72 17.408-72.192 28.672-124.928 19.456-7.68 11.776-20.48 20.48-35.84 20.48-23.552 0-43.008-19.456-43.008-43.008s19.456-43.008 43.008-43.008c20.48 0 36.352 14.336 40.96 33.28 53.248 9.216 92.16-6.144 118.272-24.576 1.024-65.536 18.432-126.464 47.616-177.664-41.984-19.968-73.728-52.224-93.184-76.288-5.632 2.56-11.264 4.096-17.92 4.096-23.552 0-43.008-19.456-43.008-43.008s19.456-43.008 43.008-43.008 43.008 19.456 43.008 43.008c0 5.12-1.536 9.728-3.072 13.824 17.408 22.016 48.128 55.296 88.576 73.216 33.28-46.592 77.312-81.92 127.488-101.376 33.28-12.8 69.632 9.728 69.632 43.52v539.648c1.536 33.792-34.816 56.32-68.096 43.52zM293.888 368.128c0 37.376 30.208 67.584 67.584 67.584s67.584-30.208 67.584-67.584-30.208-67.584-67.584-67.584-67.584 30.208-67.584 67.584zM399.872 141.312c-20.992 0-38.4 16.896-38.4 38.4 0 20.992 16.896 38.4 38.4 38.4 20.992 0 38.4-16.896 38.4-38.4-0.512-21.504-17.408-38.4-38.4-38.4zM399.872 501.248c-20.992 0-38.4 16.896-38.4 38.4 0 20.992 16.896 38.4 38.4 38.4 20.992 0 38.4-16.896 38.4-38.4-0.512-21.504-17.408-38.4-38.4-38.4zM950.784 421.376c-14.336 0-26.112-7.168-34.304-17.92-55.296 4.608-96.768-13.312-125.952-34.816-3.072 67.072-23.552 129.024-55.808 179.712 26.624 45.568 67.584 74.752 97.28 91.648 6.656-4.096 13.824-6.656 22.016-6.656 23.552 0 43.008 19.456 43.008 43.008s-19.456 43.008-43.008 43.008c-23.552 0-43.008-19.456-43.008-43.008 0-3.072 1.024-6.144 2.048-9.216-30.72-17.408-70.144-46.080-98.816-89.6-31.744 38.912-71.168 69.12-116.224 86.528-33.28 12.8-69.632-9.728-69.632-43.52v-540.16c0-33.792 36.352-56.32 69.632-43.52 52.224 19.968 97.792 57.856 131.584 107.52 39.936-12.8 71.68-41.472 92.672-65.024-6.656-7.68-11.264-17.408-11.264-28.16 0-23.552 19.456-43.008 43.008-43.008s43.008 19.456 43.008 43.008c0 23.552-19.456 43.008-43.008 43.008-0.512 0-0.512 0-0.512 0-22.528 26.624-58.88 61.952-106.496 79.36 24.576 44.544 39.936 96.768 43.52 152.576 21.504 22.016 59.904 48.64 118.272 45.056 3.584-19.968 20.48-35.84 41.472-35.84 23.552 0 43.008 19.456 43.008 43.008s-18.944 43.008-42.496 43.008zM630.272 577.536c20.992 0 38.4-16.896 38.4-38.4 0-20.992-16.896-38.4-38.4-38.4-20.992 0-38.4 16.896-38.4 38.4s17.408 38.4 38.4 38.4zM630.272 141.312c-20.992 0-38.4 16.896-38.4 38.4 0 20.992 16.896 38.4 38.4 38.4 20.992 0 38.4-16.896 38.4-38.4s-17.408-38.4-38.4-38.4zM659.968 300.544c-37.376 0-67.584 30.208-67.584 67.584s30.208 67.584 67.584 67.584c37.376 0 67.584-30.208 67.584-67.584s-30.208-67.584-67.584-67.584z" />
<glyph unicode="&#xe90c;" glyph-name="sci-physical" d="M512-62.464c-124.928 0-190.464 253.952-190.464 504.832s65.536 504.832 190.464 504.832 190.464-253.952 190.464-504.832-65.024-504.832-190.464-504.832zM512 877.568c-49.152 0-121.344-169.472-121.344-435.2s71.68-435.2 121.344-435.2 121.344 169.472 121.344 435.2-71.68 435.2-121.344 435.2zM202.24 109.568c-57.856 0-88.064 21.504-103.424 43.52-23.552 33.28-33.792 97.28 50.176 209.92 57.856 77.824 148.48 161.792 253.952 235.52s215.552 130.048 308.224 157.696c134.656 40.448 190.976 8.704 214.016-24.576 23.552-33.28 33.792-97.28-50.176-209.92-57.856-77.824-148.48-161.792-253.952-235.52v0c-105.984-74.24-215.552-130.048-308.224-157.696-45.056-13.824-81.408-18.944-110.592-18.944zM822.272 706.048c-22.528 0-53.248-4.608-91.136-15.872-86.016-25.6-188.416-78.336-288.768-148.48-99.84-70.144-184.32-147.968-238.080-220.16-49.664-66.56-60.416-112.64-49.152-128.512s58.368-22.016 137.728 2.048c86.016 25.6 188.416 78.336 288.768 148.48v0c99.84 70.144 184.32 147.968 238.080 220.16 49.664 66.56 60.416 112.64 49.152 128.512-5.632 8.192-21.504 13.824-46.592 13.824zM822.272 109.568c-29.184 0-65.536 5.632-110.592 18.944-93.184 27.648-202.752 83.968-308.224 157.696-105.984 74.24-196.096 157.696-253.952 235.52-83.968 112.64-73.728 176.128-50.176 209.92 23.552 33.28 79.872 65.024 214.016 24.576 93.184-27.648 202.752-83.968 308.224-157.696s196.096-157.696 253.952-235.52c83.968-112.64 73.728-176.128 50.176-209.92-15.36-22.528-45.568-43.52-103.424-43.52zM201.728 706.048c-25.088 0-40.448-5.632-46.592-13.824-11.264-15.872-0.512-61.952 49.152-128.512 53.76-72.192 138.24-150.528 238.080-220.16v0c99.84-70.144 202.24-122.368 288.768-148.48 79.36-23.552 126.464-17.92 137.728-2.048s0.512 61.952-49.152 128.512c-53.76 72.192-138.24 150.528-238.080 220.16-99.84 70.144-202.24 122.368-288.768 148.48-37.888 11.264-68.096 15.872-91.136 15.872zM592.384 446.464c0-44.395-35.989-80.384-80.384-80.384s-80.384 35.989-80.384 80.384c0 44.395 35.989 80.384 80.384 80.384s80.384-35.989 80.384-80.384z" />
<glyph unicode="&#xe90d;" glyph-name="sci-process" d="M958.464 20.992l-27.136-27.136c-20.48-20.48-52.736-19.456-72.192 2.048l-292.352 323.584 67.072 67.072 323.584-292.352c20.48-20.48 20.992-53.248 1.024-73.216zM565.575 422.461l72.407-72.407-36.204-36.204-72.407 72.407 36.204 36.204zM525.824 799.232c-126.976 126.464-311.296 148.48-411.136 48.128s-78.336-284.16 48.64-411.136 310.784-148.48 411.136-48.64 77.824 284.672-48.64 411.648zM513.536 417.792c-36.352-36.352-82.944-44.032-116.224-44.032-70.656 0-145.408 33.792-204.288 92.672-51.2 51.2-82.944 114.176-90.624 177.664-6.656 57.344 8.192 108.032 42.496 142.336 36.352 36.352 82.944 44.032 116.224 44.032 70.656 0 145.408-33.792 204.288-92.672 51.2-51.2 83.456-114.176 91.136-177.664 5.632-57.344-9.216-108.544-43.008-142.336z" />
<glyph unicode="&#xe90e;" glyph-name="watchC" d="M512 960c-281.139 0-512-230.912-512-512s230.861-512 512-512 512 230.81 512 512-230.81 512-512 512zM771.174 427.52l-418.765-241.715c-3.303-1.945-7.277-3.095-11.52-3.095-12.696 0-22.989 10.292-22.989 22.989 0 0.008 0 0.016 0 0.024v-0.001 483.533c0 0.007 0 0.015 0 0.023 0 12.696 10.292 22.989 22.989 22.989 4.243 0 8.217-1.149 11.628-3.153l-0.108 0.059 418.765-241.766c6.928-4.047 11.508-11.447 11.508-19.917s-4.58-15.87-11.399-19.858l-0.109-0.059z" />
<glyph unicode="&#xe90f;" glyph-name="assignC" d="M455.68 466.905l-219.372 210.314v-150.449h-157.538v-118.154h157.538v-151.631l219.372 209.92zM787.692 345.206c108.263 26.745 187.274 123.031 187.274 237.77 0 135.077-109.502 244.578-244.578 244.578s-244.578-109.502-244.578-244.578c0-114.74 79.011-211.026 185.593-237.418l1.681-0.352c-66.166-35.84-118.154-133.514-135.089-251.668h385.182c-17.329 118.154-70.105 215.828-135.483 251.668z" />
<glyph unicode="&#xe910;" glyph-name="stampC" d="M929.792 312.832h-207.462c-121.037 61.235-121.037 80.896-125.338 193.126-4.096 112.026 71.066 120.627 66.97 283.034s-150.323 165.478-150.323 165.478-146.227-2.662-150.323-165.274c-4.096-162.611 71.066-171.008 66.97-283.034s-4.096-131.686-125.338-193.126h-204.8c-19.456 0-35.021-15.77-35.021-35.021v-147.046c0-19.456 15.77-35.021 35.021-35.021h829.645c19.456 0 35.021 15.77 35.021 35.021v147.046c0 19.251-15.565 34.816-35.021 34.816zM105.677 42.086h817.357v-95.232h-817.357v95.232z" />
<glyph unicode="&#xe911;" glyph-name="reverseC" d="M378.88-65.024l-313.003 287.403 313.003 281.259v-195.584h433.493v-197.973h-433.493zM645.12 381.099l313.003 287.403-313.003 281.259v-184.32h-464.213v-218.453h464.213z" />
<glyph unicode="&#xe912;" glyph-name="speechBubbleC" d="M923.648 796.16h-804.864c-45.056 0-98.304-40.96-98.304-88.064v-526.336c0-45.056 53.248-81.92 98.304-81.92h51.2c4.096 0 8.192 0 12.288 0h141.312l-57.344-174.080 276.48 174.080h307.2c2.048 0 4.096 0 8.192 0h67.584c45.056 0 79.872 36.864 79.872 83.968v526.336c-2.048 45.056-36.864 86.016-81.92 86.016z" />
<glyph unicode="&#xe913;" glyph-name="textboxC" d="M919.552 816.64h-811.008c-45.056 0-88.064-43.008-88.064-90.112v-528.384c0-47.104 43.008-98.304 88.064-98.304h51.2c4.096 0 8.192 0 12.288 0h671.744c2.048 0 4.096 0 8.192 0h67.584c47.104 0 83.968 51.2 83.968 98.304v530.432c0 45.056-36.864 88.064-83.968 88.064z" />
<glyph unicode="&#xe914;" glyph-name="pegPeopleC" d="M794.782 460.997c-0.919 0.028-2.001 0.043-3.086 0.043-29.38 0-56.058-11.572-75.723-30.407l0.039 0.038c-24.844-28.411-39.996-65.849-39.996-106.825 0-4.959 0.222-9.865 0.656-14.711l-0.045 0.625c0-94.917 17.329-250.486 118.154-250.486 68.923 0 112.246 81.92 118.154 250.486 0.562 5.172 0.882 11.171 0.882 17.244 0 39.241-13.377 75.357-35.82 104.038l0.28-0.371c-19.369 18.953-45.906 30.649-75.175 30.649-2.928 0-5.829-0.117-8.698-0.347l0.378 0.024zM194.56 486.991c-0.919 0.028-2.001 0.043-3.086 0.043-29.38 0-56.058-11.572-75.723-30.407l0.039 0.038c-24.844-28.411-39.996-65.849-39.996-106.825 0-4.959 0.222-9.865 0.656-14.711l-0.045 0.625c0-94.917 17.329-250.486 118.154-250.486 68.923 0 112.246 81.92 118.154 250.486 0.562 5.172 0.882 11.171 0.882 17.244 0 39.241-13.377 75.357-35.82 104.038l0.28-0.371c-19.311 18.959-45.803 30.661-75.028 30.661-2.98 0-5.932-0.122-8.851-0.36l0.383 0.025zM505.305 400.738s-138.24 8.665-133.908-169.354 51.988-263.483 133.908-263.483 129.575 90.585 133.908 263.483-133.908 169.354-133.908 169.354zM695.138 534.252c16.331 26.998 25.994 59.613 25.994 94.485 0 0.152 0 0.304-0.001 0.456v-0.023s0 0 0 2.363 0 0 0 0 0 5.514 0 8.271 0 12.997 0 19.298c-11.064 101.67-96.443 180.095-200.14 180.095-60.976 0-115.619-27.117-152.526-69.95l-0.22-0.262c-4.827-5.234-9.476-10.883-13.799-16.785l-0.38-0.544-9.058-10.24c-4.518-6.881-8.983-14.888-12.883-23.211l-0.508-1.207-3.151-6.695c-3.915-9.164-7.437-20.084-9.99-31.372l-0.25-1.318c0-2.363 0-4.726 0-7.089-2.187-10.979-3.474-23.63-3.544-36.57v-0.058c-0.001-0.187-0.001-0.408-0.001-0.629 0-11.345 1.148-22.422 3.333-33.12l-0.181 1.060c15.682-97.090 98.889-170.341 199.204-170.341 75.598 0 141.48 41.601 176.002 103.159l0.524 1.016zM807.385 914.314c-64.805-0.5-122.38-31.023-159.568-78.329l-0.334-0.441c67.927-43.849 112.257-119.164 112.257-204.832 0-0.82-0.004-1.638-0.012-2.456l0.001 0.125c0.098-2.421 0.154-5.263 0.154-8.118 0-40.638-11.335-78.628-31.015-110.982l0.535 0.946c21.156-8.235 45.646-13.007 71.249-13.007 0.705 0 1.41 0.004 2.113 0.011l-0.107-0.001c0.239-0.001 0.523-0.002 0.806-0.002 114.413 0 207.163 92.75 207.163 207.163 0 0.97-0.007 1.938-0.020 2.905l0.002-0.147c0.063 1.883 0.099 4.095 0.099 6.317 0 110.933-89.929 200.862-200.862 200.862-0.866 0-1.73-0.005-2.593-0.016l0.131 0.001zM289.477 542.917c-9.791 26.799-16.035 57.758-17.311 89.995l-0.019 0.59c-0.010 0.809-0.015 1.765-0.015 2.723 0 85.67 44.332 160.985 111.307 204.257l0.954 0.577c-35.239 59.8-99.313 99.294-172.612 99.294-1.486 0-2.968-0.016-4.446-0.049l0.22 0.004c-114.413 0-207.163-92.75-207.163-207.163s92.75-207.163 207.163-207.163v0c1.939-0.077 4.216-0.121 6.504-0.121 27.411 0 53.353 6.293 76.458 17.513l-1.042-0.456z" />
<glyph unicode="&#xe915;" glyph-name="rocketC" d="M906.24 510.72c-19.2-44.8-42.24-88.32-67.84-130.56-5.12-8.96-10.24-16.64-15.36-24.32-2.56-5.12-5.12-8.96-7.68-12.8-12.8-19.2-24.32-35.84-35.84-51.2 14.080-1.28 29.44 0 46.080 7.68 29.44 11.52 53.76 32 72.96 62.72s29.44 61.44 28.16 92.16c0 23.040-6.4 42.24-20.48 56.32zM407.040 706.56v0 0c3.84 2.56 7.68 6.4 11.52 8.96v0 0c7.68 6.4 15.36 12.8 23.040 17.92 39.68 29.44 78.080 56.32 119.040 80.64-12.8 8.96-29.44 14.080-49.92 15.36-30.72 1.28-60.16-8.96-89.6-28.16s-49.92-43.52-61.44-71.68c-10.24-25.6-10.24-48.64 0-67.84 12.8 14.080 29.44 29.44 47.36 44.8zM993.28 949.76c-8.96 8.96-29.44 12.8-65.28 7.68-15.36-2.56-29.44-5.12-48.64-8.96-35.84-7.68-78.080-20.48-129.28-38.4-3.84-1.28-7.68-2.56-11.52-3.84-11.52-3.84-15.36-19.2-7.68-28.16-2.56-1.28-5.12-2.56-7.68-2.56-21.76-8.96-42.24-17.92-64-28.16-10.24-3.84-20.48-8.96-30.72-15.36-19.2-10.24-37.12-20.48-56.32-30.72-40.96-24.32-80.64-51.2-121.6-81.92-7.68-6.4-15.36-11.52-23.040-17.92-3.84-2.56-7.68-6.4-11.52-8.96-17.92-15.36-34.56-30.72-48.64-46.080-8.96-10.24-17.92-19.2-25.6-29.44-16.64-20.48-28.16-39.68-38.4-61.44v0 0c-1.28-1.28-1.28-3.84-2.56-5.12 0 1.28-1.28 1.28-1.28 1.28-122.88 17.92-236.8-67.84-281.6-174.080-6.4-15.36 10.24-29.44 24.32-20.48 32 20.48 67.84 34.56 106.24 39.68 20.48 2.56 42.24 2.56 64 3.84 3.84 0 11.52 0 19.2 0l-6.4-14.080 2.56-2.56 26.88-24.32-20.48-72.96 70.4-61.44c-24.32-29.44-44.8-56.32-58.88-81.92-17.92-30.72-23.040-48.64-16.64-55.040 7.68-6.4 25.6 1.28 52.48 23.040 23.040 17.92 48.64 40.96 74.24 69.12l60.16-52.48 71.68 25.6 30.72-26.88 16.64 8.96c3.84-33.28 6.4-66.56 2.56-99.84-3.84-26.88-12.8-52.48-23.040-76.8-6.4-14.080 8.96-29.44 23.040-21.76 93.44 53.76 163.84 165.12 143.36 284.16 0 0 0 0 0 0v0c19.2 11.52 37.12 26.88 55.040 46.080 7.68 7.68 16.64 17.92 24.32 26.88 14.080 16.64 26.88 34.56 39.68 55.040 2.56 3.84 5.12 7.68 7.68 12.8 5.12 7.68 10.24 16.64 15.36 24.32 26.88 44.8 48.64 88.32 67.84 133.12 7.68 17.92 15.36 37.12 23.040 55.040 3.84 11.52 8.96 21.76 11.52 32 7.68 23.040 14.080 44.8 20.48 66.56 1.28 6.4 3.84 12.8 5.12 19.2l1.28-1.28c10.24-8.96 26.88-2.56 29.44 10.24 0 0 0 0 0 0 10.24 51.2 17.92 93.44 21.76 129.28 2.56 20.48 3.84 38.4 3.84 53.76 2.56 37.12-3.84 57.6-14.080 65.28zM670.72 410.88c-76.8-25.6-161.28 15.36-186.88 93.44-25.6 76.8 15.36 161.28 93.44 186.88 76.8 25.6 161.28-15.36 186.88-93.44 25.6-76.8-15.36-161.28-93.44-186.88z" />
<glyph unicode="&#xe916;" glyph-name="circleC" d="M1024 448c0-282.77-229.23-512-512-512s-512 229.23-512 512c0 282.77 229.23 512 512 512s512-229.23 512-512z" />
<glyph unicode="&#xe917;" glyph-name="artBucketC" d="M419.66 489.067l132.921 0.486 16.524 168.885-164.754-10.449zM569.348 694.159l18.225 222.831-23.328 4.131-10.692-111.78-1.701 106.92h-20.898l6.075-152.604-13.122 153.333-16.281-95.499 0.972 90.396-13.851-0.972-3.888-48.6-9.72 47.871-15.309 0.486 24.057-161.109-35.235 160.38-13.851 1.944 4.374-87.237-15.552 83.835 7.533-131.463-21.384 130.734-9.72-1.944 10.206-106.434-24.057 102.789-9.963 1.215 23.814-219.672zM831.058 891.717c0 0-264.14-27.459-217.242-275.318l147.501-19.197c0 0 88.209 71.442 28.188 154.791-60.264 83.349 41.553 139.725 41.553 139.725zM284.066 746.403l-79.461-18.954-20.412-91.125 159.165 37.908zM269.729 758.31l-22.356 22.599-22.356 22.842-19.44-60.75 32.076 7.533zM217.242 488.338l163.053 0.486-34.263 143.856-154.305-36.936zM765.692 560.023l-157.95 21.87-8.505-93.555h146.529zM777.598 439.738h-581.741c-11.421 0-19.926-10.692-17.496-21.87l102.303-449.792c1.944-8.262 8.991-13.851 17.496-13.851h381.752c8.505 0 15.795 5.832 17.496 14.094l97.686 449.792c2.43 10.935-6.075 21.627-17.496 21.627z" />
<glyph unicode="&#xe918;" glyph-name="notesC" d="M857.702 946.483h-694.886c-47.923 0-86.835-38.912-86.835-86.835v-608.051c0-47.923 38.912-86.835 86.835-86.835h217.088v-217.088l307.61 217.088h170.189c47.923 0 86.835 38.912 86.835 86.835v608.051c0 47.923-38.912 86.835-86.835 86.835zM814.285 338.432h-608.051v86.835h608.051v-86.835zM814.285 512.102h-608.051v86.835h608.051v-86.835zM814.285 685.773h-608.051v86.835h608.051v-86.835z" />
<glyph unicode="&#xe919;" glyph-name="folderC" d="M975.812 770.259h-512v30.118c0 19.878-16.264 36.141-36.141 36.141h-319.247c-19.878 0-36.141-16.264-36.141-36.141v-30.118h-30.118c-6.626 0-12.047-5.421-12.047-12.047v-42.165h957.741v42.165c0 6.626-5.421 12.047-12.047 12.047zM987.859 691.953h-957.741v-650.541c0-6.626 5.421-12.047 12.047-12.047h933.647c6.626 0 12.047 5.421 12.047 12.047v650.541z" />
<glyph unicode="&#xe91a;" glyph-name="usaC" d="M21.504 566.784c0 2.048 0 4.096 0 5.632 11.776 11.264 15.36 25.088 15.36 40.96 0 7.168 2.56 14.848 5.632 20.992 10.24 20.992 20.48 41.472 31.232 62.464 1.536 2.56 4.096 4.608 6.656 7.168-0.512 0.512-2.56 1.536-4.096 3.072 1.024 0 1.536 0 2.56 0 1.536 16.384 3.072 32.768 4.096 48.64 9.728-5.632 18.432-10.752 28.16-16.896-2.048-2.56-4.096-5.12-6.144-7.168 1.024-2.56 2.56-5.12 3.584-7.168-3.584-1.536-6.656-3.072-9.728-4.096 0.512-1.024 0.512-2.048 1.024-3.072 3.072 1.024 7.168 1.024 8.704 3.072 7.68 11.776 10.752 25.088 8.704 39.936 3.584-1.024 5.632-1.536 8.192-2.56 130.56-46.080 265.728-67.072 403.968-68.608 7.168 0 16.384-3.072 19.968 9.216 1.024-13.312 8.704-18.944 19.456-18.432 7.68 0 13.824-2.048 20.992-4.608s13.824-10.752 24.064-4.096c4.096 2.56 12.8-1.536 18.432-2.048-11.776-10.24-23.040-20.48-34.304-30.72 0.512-1.024 1.536-2.048 2.048-3.584 6.144 2.56 12.8 4.608 18.944 7.168-0.512-8.192 3.584-10.752 10.24-6.656 8.704 5.12 16.896 11.264 25.6 17.408 3.072 2.048 6.656 4.096 11.264 7.168-3.584-6.144-6.144-10.24-7.68-12.8 6.144-2.56 10.752-5.632 15.872-7.168s10.752-3.584 15.36-2.56c8.192 2.048 15.872 6.656 22.016 9.728 3.584-2.56 6.144-6.144 8.192-6.144 7.68 1.536 9.728-4.096 13.824-8.704-11.264-2.048-22.016-3.584-32.256-6.144-10.752-3.072-20.48-7.68-24.064-19.968-1.536-5.632-4.608-10.752-7.168-15.872 1.024-0.512 2.048-1.536 3.584-2.048 2.048 3.584 4.096 7.68 5.632 11.264 1.024-0.512 1.536-1.536 2.56-2.048-1.024-6.144-2.048-12.8-3.584-18.944-3.584-17.408-2.048-34.816 4.608-51.2 4.096-9.728 11.264-10.752 17.408-1.536 6.656 10.24 11.264 21.504 3.584 33.792-7.68 11.776-3.584 24.576-1.536 36.352 0.512 3.584 6.144 6.656 9.216 9.728 3.584 4.608 5.632 10.752 8.192 16.384 0.512 1.024 2.56 2.048 3.072 1.536 8.192-2.56 18.432-3.584 23.040-9.216 6.144-7.168 8.192-17.92 1.024-28.16-1.536-2.56-1.024-6.144-1.536-9.728 2.56 2.048 5.12 3.584 8.192 5.632 2.048 1.536 4.608 4.608 6.656 4.608s4.608-3.072 5.632-5.632c2.048-5.12 4.096-10.24 5.632-15.36 1.024-3.072 1.024-6.656 0-9.728-3.584-8.192-8.192-15.872-13.312-24.576 10.752-3.584 19.456-8.704 28.672-2.56 10.24 6.656 19.968 13.824 29.696 21.504 6.144 4.608 11.264 10.752 16.384 16.384 1.024 1.536 2.048 4.096 1.536 6.144-2.56 10.24-1.536 12.288 8.704 13.824 3.584 0.512 7.168 0 10.752 0.512 13.824 0.512 23.040 8.192 22.016 17.92-1.536 17.408 8.704 30.72 25.088 36.864 16.896 6.144 37.888 3.072 48.64 21.504 3.584 6.656 6.656 13.824 7.68 21.504 2.048 12.8 2.048 25.6 2.56 38.4 5.12-1.024 8.704-2.56 10.752-2.048 13.824 5.632 13.824 5.632 19.968-8.192 3.072-7.168 5.632-15.36 10.752-21.504 4.608-6.144 12.288-9.728 18.432-14.336 0-0.512 0-1.536 0-2.048-8.704-6.656-17.408-13.824-28.16-22.016 0.512-4.096-1.024-9.728-8.704-13.824-3.584-2.048-6.656-8.192-7.168-12.8-1.536-10.24-2.048-20.48-2.56-29.184 6.144-5.632 10.752-9.728 16.384-14.848-6.144-2.048-11.264-4.096-14.848-5.12-4.608-4.096-7.68-8.704-11.776-10.24-14.848-6.144-27.648-14.336-34.816-30.208 12.288-5.12 9.216-22.016-0.512-38.4-4.608 1.536-8.704 3.584-13.312 5.12 2.048-5.12 5.632-8.704 7.68-12.8s4.608-9.728 3.584-14.336c-1.536-8.704-5.632-17.408-8.192-26.112 0 10.752 1.536 22.016-12.288 25.6-0.512 0-0.512 1.024-0.512 1.536-1.024 8.192-2.048 16.384-2.56 24.064-10.752-9.728-2.56-20.48 1.024-31.744-4.096 0-7.168 0-9.728 0 19.456-2.56 12.8-19.968 17.92-30.208 13.312 3.584 7.168-10.752 13.312-13.824-3.584-3.072-6.656-5.12-8.704-6.656 4.608-1.536 12.8-2.56 12.8-4.096 0.512-9.728-6.144-12.288-13.312-11.776 0-4.096 0.512-7.68 0.512-11.264 1.536 0 3.584 0.512 5.632 0.512-12.8-7.68-23.552-15.872-26.112-32.256-11.264 0.512-15.872-7.68-20.48-15.872s-9.216-17.408-16.384-23.040c-12.288-9.728-25.6-41.472-18.432-57.344 4.608-9.728 9.728-18.944 14.336-28.672 3.072-5.632 5.632-11.264 8.192-17.408 2.048-4.608 3.584-9.728 6.656-13.824 13.824-16.384 15.872-34.816 10.752-54.784-1.536-5.632-11.776-11.264-14.848-7.68-7.168 8.704-14.848 16.896-22.016 25.6-2.56 3.072-3.584 8.704-6.144 9.216-14.336 3.072-13.824 12.288-8.192 25.6-4.608-3.072-6.656-4.096-10.24-6.144 0.512 6.144 1.536 10.752 1.024 15.872-0.512 5.632-1.536 12.288-4.608 15.872-5.12 6.144-12.8 10.24-19.456 15.36-6.144 4.608-11.776 6.656-18.432-0.512-3.584-4.096-9.728-5.632-14.336-8.192-16.896 20.992-35.84 16.896-55.296 8.192-2.048 3.584-3.072 6.144-4.608 8.704 0-1.024 0-2.048 0-3.072-5.12-1.536-9.728-3.584-14.848-5.12-4.096-1.024-9.728 0-12.8-2.56-4.608-4.096-8.192-4.608-12.8-1.536-5.632 3.584-8.192 0.512-10.752-5.12 8.192-0.512 15.36-1.536 22.528-2.048-1.536-3.072-3.072-6.144-5.12-9.216 4.608-3.072 8.704-6.144 12.8-8.704-0.512-1.024-1.024-2.048-1.536-3.072-6.144 3.072-12.288 6.656-18.944 9.728-0.512-3.584-1.024-6.144-1.024-6.656-4.608-1.024-8.192-2.048-11.264-2.048-4.096 0.512-8.704 1.024-12.288 3.072-4.608 2.56-8.704 6.656-13.824 9.216-4.096 2.048-6.144 0.512-4.608-4.096 0 0 0.512 0 1.024-0.512 0 0 0-0.512-1.024-1.024-4.096 0.512-9.728-0.512-13.824 1.024-11.264 5.12-22.016 3.072-33.28-1.024-2.56-1.024-6.144 0-9.216 0.512-1.536 0-2.56 1.024-4.096 1.536-0.512-1.536-1.024-3.072-1.536-4.608-1.024-2.56-1.024-6.144-2.56-8.192-7.168-11.264-17.92-13.824-30.208-13.312 0-2.56 0.512-6.144-0.512-6.144-10.24-4.096-15.872-10.24-18.944-22.016-2.56-9.728-1.536-17.92 0-26.624 0.512-3.584 1.536-6.656 2.048-10.24-6.656 1.536-12.288 2.048-17.408 3.072-15.872 3.072-27.136 15.872-29.696 31.744-0.512 2.56-1.536 4.608-3.072 6.656-6.144 9.728-12.288 19.968-18.944 29.696-5.632 7.68-10.24 16.384-17.408 22.528-10.24 8.192-24.064 4.608-31.744-6.144-2.048-3.072-6.656-6.656-9.216-6.656-12.288 1.536-25.6 16.384-28.16 28.672-1.024 4.608-2.56 9.216-5.632 13.312-5.12 6.144-10.752 11.776-16.384 17.92-4.096 4.096-7.68 10.752-12.288 12.288-10.752 3.072-22.016 3.584-33.28 5.12-1.536-4.096-2.56-7.168-3.584-10.24-10.752 1.536-20.992 3.072-31.232 5.12-9.728 2.048-20.48 2.048-29.184 6.656-20.992 11.264-43.52 22.016-60.928 37.888-12.288 10.752-25.6 9.216-38.4 12.8-2.048 0.512-4.096 0.512-5.632 0.512-6.144 0.512-8.192 3.584-8.704 10.24-0.512 5.632-2.56 12.288-5.632 16.896-5.632 8.192-13.312 14.848-20.992 22.016-7.168 7.168-14.336 12.8-24.064 16.896-1.536 0.512-3.584 4.608-3.072 6.144 3.072 9.728-2.048 17.92-5.12 26.624-3.072 9.216-13.312 17.92-3.584 29.184 0.512 1.024-0.512 4.608-2.048 5.632-8.192 5.632-5.632 12.8-3.584 20.48 1.536-2.048 2.56-4.096 4.608-7.168 0 6.656 0 11.264 0 17.92-2.56-2.56-3.584-4.608-6.656-7.68-2.048 8.192-3.072 14.848-6.144 20.48-4.096 8.704-4.096 16.896-2.56 26.112-0.512 9.728-4.096 16.384-5.12 22.528z" />
<glyph unicode="&#xe91b;" glyph-name="planetC" d="M265.035 261.271c54.212 42.165 174.682 150.588 240.941 210.824 54.212 48.188 138.541 144.565 204.8 222.871-66.259 78.306-174.682 120.471-283.106 102.4-168.659-30.118-283.106-192.753-252.988-361.412 12.047-66.259 42.165-126.494 90.353-174.682zM783.059 556.424c0 0 0 0 0 0 108.424 138.541 210.824 325.271 162.635 373.459-36.141 36.141-180.706-54.212-295.153-114.447 30.118-18.071 54.212-36.141 78.306-60.235 48.188 30.118 78.306 42.165 84.329 36.141 12.047-12.047-18.071-60.235-78.306-132.518v0c0 0-126.494-138.541-216.847-222.871-84.329-78.306-234.918-198.776-234.918-198.776v0c-78.306-54.212-126.494-84.329-138.541-72.282s6.024 42.165 48.188 90.353c-24.094 30.118-42.165 60.235-54.212 96.376-78.306-114.447-162.635-283.106-126.494-319.247 42.165-48.188 216.847 60.235 367.435 156.612 0 0 96.376-18.071 144.565-12.047 168.659 30.118 283.106 186.729 259.012 355.388 6.024 12.047 0 18.071 0 24.094z" />
<glyph unicode="&#xe91c;" glyph-name="appleC" d="M822.778 582.111s-95.188 57.036-264.974 10.295c-11.782 38.538-45.474 157.619-92.545 206.231 0 0-131.413 26.371-154.151-13.158 0 0 107.080-108.071 156.738-193.239-170.667 47.071-265.91-10.075-265.91-10.075-77.626-66.78-63.202-147.709-63.202-147.709 12.662-198.854 64.963-292.721 64.963-292.721 72.175-171.492 184.1-203.699 184.1-203.699 44.236 0.298 87.494 2.91 130.085 7.722l-5.553-0.51c37.038-4.303 80.295-6.915 124.103-7.21l0.428-0.002s111.924 32.482 184.1 203.699c0 0 52.356 93.591 64.963 292.721 0.055-0.055 14.479 80.874-63.147 147.654zM592.929 704.606c0 287.381 254.238 254.348 254.238 254.348 0-254.348-254.238-254.348-254.238-254.348z" />
<glyph unicode="&#xe91d;" glyph-name="apple-hollowC" d="M686.355 506.192c1.426 0.032 3.106 0.051 4.79 0.051 25.871 0 50.725-4.352 73.871-12.365l-1.585 0.477c18.498-20.205 19.379-38.868 19.159-44.649l-0.495-2.753-0.385-5.891c-10.13-159.656-48.227-240.695-52.246-248.953l-1.927-3.193-2.808-6.606c-38.538-90.949-87.26-127.284-109.006-139.671-48.007 1.266-90.618 6.166-91.059 6.221l-12.222 1.431-12.222-1.431c-0.495 0-42.722-4.955-90.894-6.221-8.040 4.692-14.947 9.494-21.448 14.776l0.307-0.242c-24.279 19.379-59.238 56.815-88.086 125.137l-1.376 4.184-3.303 5.505c-3.909 7.873-42.116 89.132-52.301 249.008l-0.44 5.946-0.495 2.753c0 5.781 0.661 24.499 19.159 44.649 21.56 7.535 46.414 11.887 72.285 11.887 1.684 0 3.364-0.018 5.039-0.055l-0.249 0.004c16.516 0 139.671-11.671 174.025-12.717 37.877 0.661 128.551 9.524 128.551 9.524 13.624 1.985 29.391 3.144 45.42 3.193h0.055zM381.137 807.226c-30.72 0-60.559-4.845-70.083-22.022 0 0 107.080-108.071 156.738-193.239-38.714 11.468-83.236 18.24-129.284 18.607l-0.202 0.001c-88.526 0-136.423-28.683-136.423-28.683-77.626-66.78-63.202-147.709-63.202-147.709 12.662-198.854 64.963-292.721 64.963-292.721 72.175-171.492 184.1-203.699 184.1-203.699 44.236 0.298 87.494 2.91 130.085 7.722l-5.553-0.51c37.038-4.303 80.295-6.915 124.103-7.21l0.428-0.002s111.924 32.482 184.1 203.699c0 0 52.356 93.591 64.963 292.721 0 0 14.424 80.874-63.202 147.709 0 0-47.897 28.683-136.423 28.683-45.843-0.305-90.019-6.919-131.868-19.016l3.427 0.848c-11.782 38.538-45.474 157.619-92.545 206.231-24.968 4.979-53.905 8.082-83.475 8.583l-0.427 0.006zM823.769 960c-62.926 0-230.785-22.022-230.785-255.394 0 0 254.238 0 254.238 254.238-6.473 0.742-13.975 1.165-21.576 1.165-0.66 0-1.319-0.003-1.977-0.010l0.101 0.001z" />
<glyph unicode="&#xe91e;" glyph-name="newFolderC" d="M957.44 712.192h-906.24c-28.277 0-51.2-22.923-51.2-51.2v0-583.168c0-28.277 22.923-51.2 51.2-51.2v0h906.24c28.277 0 51.2 22.923 51.2 51.2v0 583.168c0 28.277-22.923 51.2-51.2 51.2v0zM763.392 320h-211.968v-211.968h-93.696v211.968h-211.968v93.696h211.968v213.504h93.696v-213.504h211.968zM51.2 773.12h517.632v51.2c-1.403 32.654-28.092 58.627-60.903 58.88h-447.001c-33.533-0.287-60.641-27.395-60.928-60.901v-96.795c1.93 26.692 24.059 47.616 51.074 47.616 0.044 0 0.088 0 0.132 0h-0.007z" />
<glyph unicode="&#xe91f;" glyph-name="interactivityC" d="M676.663 954.854h-631.381c-25.214 0-45.282-20.068-45.282-45.282v-631.381c0-25.214 20.068-45.282 45.282-45.282h631.381c25.214 0 45.282 20.068 45.282 45.282v631.381c0.515 25.214-20.068 45.282-45.282 45.282zM447.678 270.472c-28.302 0-51.457 23.156-51.457 51.457s23.156 51.457 51.457 51.457 51.457-23.156 51.457-51.457-23.156-51.457-51.457-51.457zM447.678 435.136c-28.302 0-51.457 23.156-51.457 51.457s23.156 51.457 51.457 51.457 51.457-23.156 51.457-51.457-23.156-51.457-51.457-51.457zM627.779 435.136c-28.302 0-51.457 23.156-51.457 51.457s23.156 51.457 51.457 51.457 51.457-23.156 51.457-51.457-23.156-51.457-51.457-51.457zM807.879 435.136c-28.302 0-51.457 23.156-51.457 51.457s23.156 51.457 51.457 51.457 51.457-23.156 51.457-51.457-23.156-51.457-51.457-51.457zM627.779-58.854c-28.302 0-51.457 23.156-51.457 51.457s23.156 51.457 51.457 51.457 51.457-23.156 51.457-51.457-23.156-51.457-51.457-51.457zM807.879-58.854c-28.302 0-51.457 23.156-51.457 51.457s23.156 51.457 51.457 51.457 51.457-23.156 51.457-51.457-23.156-51.457-51.457-51.457zM972.543 435.136c-28.302 0-51.457 23.156-51.457 51.457s23.156 51.457 51.457 51.457 51.457-23.156 51.457-51.457-23.156-51.457-51.457-51.457zM499.136 157.266c0-28.302-23.156-51.457-51.457-51.457s-51.457 23.156-51.457 51.457 23.156 51.457 51.457 51.457 51.457-23.156 51.457-51.457zM499.136-7.397c0-28.302-23.156-51.457-51.457-51.457s-51.457 23.156-51.457 51.457 23.156 51.457 51.457 51.457 51.457-23.156 51.457-51.457zM1024 321.93c0-28.302-23.156-51.457-51.457-51.457s-51.457 23.156-51.457 51.457c0 28.302 23.156 51.457 51.457 51.457s51.457-23.156 51.457-51.457zM1024 157.266c0-28.302-23.156-51.457-51.457-51.457s-51.457 23.156-51.457 51.457 23.156 51.457 51.457 51.457 51.457-23.156 51.457-51.457zM1024-7.397c0-28.302-23.156-51.457-51.457-51.457s-51.457 23.156-51.457 51.457 23.156 51.457 51.457 51.457 51.457-23.156 51.457-51.457z" />
<glyph unicode="&#xe920;" glyph-name="scienceInteractiveC" d="M1013.76 60.314l-377.805 616.090v116.173c42.395 4.434 75.158 39.982 75.158 83.181 0 5.346-0.502 10.576-1.461 15.643l0.082-0.521c-7.322 40.96-47.514 69.12-90.982 69.12h-212.992c-43.469 0-83.661-28.211-90.982-69.12-0.877-4.547-1.379-9.776-1.379-15.123 0-43.2 32.763-78.747 74.797-83.151l0.362-0.031v-116.173l-377.549-616.090c-32.512-58.726 13.056-123.904 78.131-123.904h846.234c65.075-6.502 110.643 65.178 78.387 123.904zM337.357 192c-37.071 0-67.123 30.052-67.123 67.123s30.052 67.123 67.123 67.123c37.071 0 67.123-30.052 67.123-67.123v0c0-37.071-30.052-67.123-67.123-67.123v0zM268.032 381.44l171.725 280.525v176.179l-45.21 5.12c-9.793 1.070-18.243 6.078-23.85 13.383l-0.061 0.082c-3.804 5.131-6.088 11.587-6.088 18.577 0 2.269 0.241 4.482 0.698 6.615l-0.037-0.206c2.611 15.002 20.838 27.085 40.55 27.085h212.992c19.712 0 37.939-12.083 40.55-26.88 0.418-1.923 0.658-4.132 0.658-6.397 0-6.993-2.283-13.453-6.145-18.675l0.060 0.085c-5.719-7.423-14.247-12.44-23.965-13.453l-0.15-0.013-45.21-5.12v-176.384l171.93-280.525zM685.517 95.642c-47.76 0-86.477 38.717-86.477 86.477s38.717 86.477 86.477 86.477c47.76 0 86.477-38.717 86.477-86.477v0c-0.117-47.672-38.789-86.272-86.477-86.272 0 0 0 0 0 0v0z" />
<glyph unicode="&#xe921;" glyph-name="eraserC" d="M328.812 923.98h124.527c0 0 0 0 0 0 23.156 0 44.768-9.262 59.69-24.699l493.475-493.475c11.321-11.321 18.010-26.243 18.010-43.224s-6.689-32.418-18.010-43.224l-329.327-329.327c-11.321-11.321-26.243-18.010-43.224-18.010s-32.418 6.689-43.224 18.010l-572.205 571.69c-11.321 11.321-18.010 26.243-18.010 43.224s6.689 32.418 18.010 43.224v0l250.597 251.112c14.923 15.437 36.020 24.699 59.69 24.699 0 0 0 0 0 0v0 0zM89.021 594.653l226.412-226.412 309.773 309.773-151.284 152.314c-10.291 10.291-24.185 16.466-39.622 16.466h-89.021c-15.437 0-29.331-6.175-39.622-16.466l-216.635-217.15c-2.573-2.573-3.602-5.66-3.602-9.262s1.029-6.689 3.602-9.262v0 0z" />
<glyph unicode="&#xe922;" glyph-name="homeC" d="M955.392 536.678l-79.462 81.101 8.397 220.365-137.421 5.12-3.482-90.522-186.163 189.85c-22.733 23.142-60.006 23.142-82.739 0l-398.131-405.914c-22.118-22.528-5.939-60.211 25.6-60.211h66.56l8.397-100.762-72.499 3.277-10.65-7.782 8.602-208.282c-14.541-4.096-25.19-17.203-25.19-32.973 0-16.794 12.083-30.72 28.058-33.792l6.554-153.395 16.589-6.758 129.843 65.331-31.539 372.122h242.893l-2.048-372.122h345.498l47.923 475.136h68.813c31.539-0.205 47.718 37.683 25.6 60.211zM799.13 367.104l-9.626-121.242h-111.002l4.096 121.242h116.531zM642.048 367.104v-121.242h-115.917v121.242h115.917zM526.131 204.902h115.917v-108.954h-115.917v108.954zM673.382 95.949l3.686 108.954h108.954l-8.806-108.954h-103.834z" />
</font>
</defs>
</svg>
